<svg width="14" height="16" fill="none" xmlns="http://www.w3.org/2000/svg"><path fill-rule="evenodd" clip-rule="evenodd" d="M7 4.25a2.75 2.75 0 1 0 0 5.5 2.75 2.75 0 0 0 0-5.5zM5.75 7a1.25 1.25 0 1 1 2.5 0 1.25 1.25 0 0 1-2.5 0z" fill="#262626"/><path fill-rule="evenodd" clip-rule="evenodd" d="M11.775 2.266a6.662 6.662 0 0 0-9.55 0c-2.633 2.685-2.633 7.037 0 9.723l.027.026L7 15.977l4.748-3.962.027-.026c2.633-2.686 2.633-7.038 0-9.723zm-8.479 1.05a5.162 5.162 0 0 1 7.408 0c2.053 2.094 2.061 5.492.025 7.596L7 14.024l-3.73-3.11c-2.035-2.105-2.027-5.503.026-7.597z" fill="#262626"/></svg>