<svg width="16" height="16" fill="none" xmlns="http://www.w3.org/2000/svg"><path fill-rule="evenodd" clip-rule="evenodd" d="M8.42.017l.065.008C12.67.278 16 3.752 16 8c0 4.248-3.33 7.723-7.515 7.975a1.67 1.67 0 0 1-.267.025c-.014 0-.028-.002-.042-.004a.368.368 0 0 0-.1 0C8.05 15.998 8.026 16 8 16c-4.411 0-8-3.589-8-8 0-4.41 3.589-8 8-8 .025 0 .05.002.075.004l.065.003a.356.356 0 0 0 .036-.003C8.19.002 8.204 0 8.218 0c.068 0 .135.008.202.017zm.15 1.056c.857.356 2.27 2.052 2.74 4.306a46.64 46.64 0 0 1-2.74.115v-4.42zm-1.143 4.42a48.625 48.625 0 0 1-2.744-.112c.479-2.227 1.887-3.908 2.744-4.293v4.405zM5.605 1.427c-.81.936-1.468 2.279-1.83 3.865-1.124-.122-1.802-.264-2.076-.33a7.028 7.028 0 0 1 3.906-3.535zM.997 8c0-.734.114-1.441.324-2.106.19.052.92.232 2.271.382-.08.571-.121 1.147-.122 1.724 0 .755.072 1.48.195 2.168-1.158.125-1.872.274-2.192.351A6.955 6.955 0 0 1 .997 8zm2.882 3.148c-.96.1-1.609.218-1.971.295a7.031 7.031 0 0 0 3.698 3.13c-.736-.848-1.35-2.028-1.727-3.425zm3.548 3.764c-.857-.359-2.119-1.845-2.636-3.85.744-.054 1.78-.094 2.636-.104v3.954zM4.608 10.08a49.742 49.742 0 0 1 2.82-.117V6.49a50.766 50.766 0 0 1-2.882-.122A12.856 12.856 0 0 0 4.468 8c0 .72.03 1.419.14 2.079zm7.625-4.798c1.252-.149 1.886-.325 2.042-.373a7.04 7.04 0 0 0-3.5-3.335c.666.924 1.176 2.205 1.458 3.708zm-.806 1.084c-.798.066-2 .114-2.857.125v3.472c.857.01 2.021.056 2.807.12.106-.661.132-1.36.132-2.082 0-.561-.017-1.107-.082-1.635zM8.57 14.927v-3.969c.857.01 1.9.05 2.635.107-.508 2.031-1.778 3.53-2.635 3.862zm3.577-3.764c-.295 1.314-.772 2.432-1.372 3.265a7.043 7.043 0 0 0 3.29-2.94c-.312-.08-.933-.211-1.918-.325zm.177-.984c.19-1.296.21-2.612.06-3.914 1.54-.185 2.222-.416 2.267-.432l-.161-.455c.34.833.514 1.723.514 2.622 0 .91-.18 1.777-.497 2.574-.275-.08-.967-.252-2.183-.395z" fill="#DADADA"/></svg>