<svg width="24" height="24" fill="none" xmlns="http://www.w3.org/2000/svg"><path fill-rule="evenodd" clip-rule="evenodd" d="M20.53 6.095a.395.395 0 0 1 .367.094c.091.093.122.25.091.375-.274.906-.824 1.562-1.497 1.906v.093c0 6.031-4.399 10.937-9.776 10.937-3.025 0-5.469-.531-6.569-1.437-.122-.125-.183-.282-.122-.47a.436.436 0 0 1 .397-.28c1.803-.032 2.964-.469 3.85-1-1.711-.219-2.78-1.063-3.33-2.656a.346.346 0 0 1 .122-.406.422.422 0 0 1 .427-.032c.459.313.917.375 1.467.375-1.161-.718-2.23-1.906-2.658-3.374-.03-.157.03-.344.153-.407.152-.093.305-.062.427.032.336.28.703.468 1.253.562-1.191-1.25-1.925-3.093-.886-5.125l.183-.375.306.313C6.629 7.25 8.37 8.188 11.548 8.813v-.125c0-2.28 1.741-4.156 3.91-4.187.856 0 2.048.625 2.536.906.012 0 .024.005.034.009.016.006.027.01.027-.009.611-.187 1.345-.5 2.2-.875a.32.32 0 0 1 .367.063c.092.094.122.219.061.375a4.304 4.304 0 0 1-.764 1.344l.611-.22zm-1.795 2.143l.178-.06c.563-.212.89-.665 1.097-1.057l-1.156.392c-.148.06-.326 0-.385-.15-.06-.151-.03-.332.089-.423.474-.392.83-.815 1.096-1.268a29.95 29.95 0 0 1-1.57.604c-.178.06-.356.03-.534-.06l-.019-.01c-.348-.194-1.446-.805-2.115-.775-1.779.03-3.201 1.57-3.201 3.44v.846l-.356-.06c-3.26-.604-5.068-1.48-6.965-3.38-.89 2.293.948 3.892 1.57 4.345l.741.543h-.918c-.593 0-1.245-.06-1.838-.332.652 1.388 1.986 2.415 3.112 2.746l-.089.604c-.237 0-.474 0-.711.03-.623.03-1.186.03-1.72-.15.594 1.146 1.631 1.629 3.32 1.629h.89l-.741.543c-.92.725-2.105 1.389-4.15 1.54.978.482 2.786.935 5.483.935 4.622 0 8.892-4.711 8.892-9.96v-.512z" fill="#fff"/><mask id="a" maskUnits="userSpaceOnUse" x="3" y="4" width="18" height="16"><path fill-rule="evenodd" clip-rule="evenodd" d="M20.53 6.095a.395.395 0 0 1 .367.094c.091.093.122.25.091.375-.274.906-.824 1.562-1.497 1.906v.093c0 6.031-4.399 10.937-9.776 10.937-3.025 0-5.469-.531-6.569-1.437-.122-.125-.183-.282-.122-.47a.436.436 0 0 1 .397-.28c1.803-.032 2.964-.469 3.85-1-1.711-.219-2.78-1.063-3.33-2.656a.346.346 0 0 1 .122-.406.422.422 0 0 1 .427-.032c.459.313.917.375 1.467.375-1.161-.718-2.23-1.906-2.658-3.374-.03-.157.03-.344.153-.407.152-.093.305-.062.427.032.336.28.703.468 1.253.562-1.191-1.25-1.925-3.093-.886-5.125l.183-.375.306.313C6.629 7.25 8.37 8.188 11.548 8.813v-.125c0-2.28 1.741-4.156 3.91-4.187.856 0 2.048.625 2.536.906.012 0 .024.005.034.009.016.006.027.01.027-.009.611-.187 1.345-.5 2.2-.875a.32.32 0 0 1 .367.063c.092.094.122.219.061.375a4.304 4.304 0 0 1-.764 1.344l.611-.22zm-1.795 2.143l.178-.06c.563-.212.89-.665 1.097-1.057l-1.156.392c-.148.06-.326 0-.385-.15-.06-.151-.03-.332.089-.423.474-.392.83-.815 1.096-1.268a29.95 29.95 0 0 1-1.57.604c-.178.06-.356.03-.534-.06l-.019-.01c-.348-.194-1.446-.805-2.115-.775-1.779.03-3.201 1.57-3.201 3.44v.846l-.356-.06c-3.26-.604-5.068-1.48-6.965-3.38-.89 2.293.948 3.892 1.57 4.345l.741.543h-.918c-.593 0-1.245-.06-1.838-.332.652 1.388 1.986 2.415 3.112 2.746l-.089.604c-.237 0-.474 0-.711.03-.623.03-1.186.03-1.72-.15.594 1.146 1.631 1.629 3.32 1.629h.89l-.741.543c-.92.725-2.105 1.389-4.15 1.54.978.482 2.786.935 5.483.935 4.622 0 8.892-4.711 8.892-9.96v-.512z" fill="#fff"/></mask></svg>