<svg width="146" height="24" fill="none" xmlns="http://www.w3.org/2000/svg"><path d="M67.712 9.663c-2.152 0-3.679 1.684-3.679 4.269v9.482h-3.285V6.724h3.246v2.038a4.403 4.403 0 0 1 3.91-2.156h1.181v3.057h-1.373zm-9.234 5.406c0-4.977-3.541-8.7-8.333-8.7a8.59 8.59 0 0 0-8.53 8.7c0 4.973 3.836 8.734 8.84 8.734a8.723 8.723 0 0 0 7.2-3.564l-2.383-1.747a5.814 5.814 0 0 1-4.816 2.427 5.595 5.595 0 0 1-5.509-4.776h13.539l-.008-1.074zm-13.46-1.53c.587-2.546 2.62-4.27 5.088-4.27 2.466 0 4.497 1.724 5.047 4.27H45.018zm-13.81-7.17a8.31 8.31 0 0 0-5.901 2.468V.492h-3.285v22.922h3.245v-2.117a8.44 8.44 0 0 0 5.95 2.506 8.719 8.719 0 1 0 0-17.433h-.008zm-.235 14.5a5.78 5.78 0 1 1 5.752-5.76 5.737 5.737 0 0 1-5.753 5.743v.016zm-21.05-.158c3.171 0 5.634-2.432 5.634-6.075V.492h3.404v22.922h-3.364v-2.168a8.355 8.355 0 0 1-6.063 2.546c-4.89 0-8.656-3.565-8.656-8.971V.491h3.466v14.165c0 3.663 2.36 6.055 5.58 6.055zM77.257.492h16.08v3.934H81.601v5.587h11.41v3.8H81.6v5.682h11.736v3.934h-16.08V.492zm60.488 23.35c4.93 0 7.707-2.36 7.707-5.602 0-2.31-1.644-4.033-5.087-4.78l-3.639-.744c-2.113-.393-2.778-.787-2.778-1.574 0-1.019 1.019-1.644 2.896-1.644 2.034 0 3.541.547 3.934 2.427h4.265c-.232-3.54-2.777-5.878-7.939-5.878-4.462 0-7.594 1.842-7.594 5.41 0 2.467 1.723 4.072 5.441 4.855l4.069.94c1.605.315 2.034.748 2.034 1.413 0 1.058-1.212 1.723-3.171 1.723-2.463 0-3.872-.547-4.419-2.427h-4.288c.625 3.533 3.246 5.882 8.569 5.882zm-9.809-.428h-4.615c-2.895 0-4.501-1.802-4.501-4.076v-9.01h-3.246v-3.84h3.262v-4.82h4.289v4.82h4.811v3.84h-4.811v7.912c0 .901.625 1.334 1.605 1.334h3.206v3.84zM109.445 6.496v1.526a8.326 8.326 0 0 0-5.402-1.967 8.899 8.899 0 0 0-8.388 5.447 8.894 8.894 0 0 0 8.388 12.34 8.303 8.303 0 0 0 5.402-1.967v1.53h4.276V6.489l-4.276.008zm-5.048 13.632a5.175 5.175 0 0 1-5.14-6.147 5.174 5.174 0 0 1 10.254.978 5.096 5.096 0 0 1-1.484 3.65 5.112 5.112 0 0 1-3.638 1.512l.008.008z" fill="#fff"/></svg>